<mxfile host="Electron" agent="Mozilla/5.0 (Windows NT 10.0; Win64; x64) AppleWebKit/537.36 (KHTML, like Gecko) draw.io/24.7.17 Chrome/128.0.6613.36 Electron/32.0.1 Safari/537.36" version="24.7.17">
  <diagram name="Page-1" id="3VRC5dKmI1we5UrBULEq">
    <mxGraphModel dx="2216" dy="5711" grid="1" gridSize="10" guides="1" tooltips="1" connect="1" arrows="1" fold="1" page="1" pageScale="1" pageWidth="3300" pageHeight="4681" math="0" shadow="0">
      <root>
        <mxCell id="0" />
        <mxCell id="1" parent="0" />
        <mxCell id="s9MI37_qmTpbE7ZE2GGh-1" value="PRODUCT" style="rounded=0;whiteSpace=wrap;html=1;" vertex="1" parent="1">
          <mxGeometry x="560" y="400" width="120" height="40" as="geometry" />
        </mxCell>
        <mxCell id="s9MI37_qmTpbE7ZE2GGh-3" value="ORDER" style="rounded=0;whiteSpace=wrap;html=1;" vertex="1" parent="1">
          <mxGeometry x="560" y="200" width="120" height="40" as="geometry" />
        </mxCell>
        <mxCell id="s9MI37_qmTpbE7ZE2GGh-4" value="SUPPLIER" style="rounded=0;whiteSpace=wrap;html=1;" vertex="1" parent="1">
          <mxGeometry x="2090" y="370" width="120" height="40" as="geometry" />
        </mxCell>
        <mxCell id="s9MI37_qmTpbE7ZE2GGh-10" value="" style="rhombus;whiteSpace=wrap;html=1;" vertex="1" parent="1">
          <mxGeometry x="1200" y="180" width="120" height="80" as="geometry" />
        </mxCell>
        <mxCell id="s9MI37_qmTpbE7ZE2GGh-12" value="USER" style="rounded=0;whiteSpace=wrap;html=1;" vertex="1" parent="1">
          <mxGeometry x="880" y="400" width="120" height="40" as="geometry" />
        </mxCell>
        <mxCell id="s9MI37_qmTpbE7ZE2GGh-14" value="CUSTOMER" style="rounded=0;whiteSpace=wrap;html=1;" vertex="1" parent="1">
          <mxGeometry x="1040" y="200" width="120" height="40" as="geometry" />
        </mxCell>
        <mxCell id="s9MI37_qmTpbE7ZE2GGh-15" value="STAFF" style="rounded=0;whiteSpace=wrap;html=1;" vertex="1" parent="1">
          <mxGeometry x="840" y="280" width="120" height="40" as="geometry" />
        </mxCell>
        <mxCell id="s9MI37_qmTpbE7ZE2GGh-17" value="CATEGORY" style="rounded=0;whiteSpace=wrap;html=1;" vertex="1" parent="1">
          <mxGeometry x="1240" y="600" width="120" height="40" as="geometry" />
        </mxCell>
        <mxCell id="s9MI37_qmTpbE7ZE2GGh-18" value="ACCESSORY" style="rounded=0;whiteSpace=wrap;html=1;" vertex="1" parent="1">
          <mxGeometry x="1020" y="680" width="120" height="40" as="geometry" />
        </mxCell>
        <mxCell id="s9MI37_qmTpbE7ZE2GGh-19" value="SHIRT" style="rounded=0;whiteSpace=wrap;html=1;" vertex="1" parent="1">
          <mxGeometry x="1040" y="600" width="120" height="40" as="geometry" />
        </mxCell>
        <mxCell id="s9MI37_qmTpbE7ZE2GGh-20" value="" style="endArrow=none;html=1;rounded=0;exitX=1;exitY=0;exitDx=0;exitDy=0;entryX=0;entryY=1;entryDx=0;entryDy=0;" edge="1" parent="1" source="s9MI37_qmTpbE7ZE2GGh-12" target="s9MI37_qmTpbE7ZE2GGh-14">
          <mxGeometry width="50" height="50" relative="1" as="geometry">
            <mxPoint x="610" y="290" as="sourcePoint" />
            <mxPoint x="660" y="240" as="targetPoint" />
          </mxGeometry>
        </mxCell>
        <mxCell id="s9MI37_qmTpbE7ZE2GGh-21" value="" style="endArrow=none;html=1;rounded=0;exitX=0.5;exitY=0;exitDx=0;exitDy=0;entryX=0.5;entryY=1;entryDx=0;entryDy=0;" edge="1" parent="1" source="s9MI37_qmTpbE7ZE2GGh-12" target="s9MI37_qmTpbE7ZE2GGh-15">
          <mxGeometry width="50" height="50" relative="1" as="geometry">
            <mxPoint x="610" y="290" as="sourcePoint" />
            <mxPoint x="660" y="240" as="targetPoint" />
          </mxGeometry>
        </mxCell>
        <mxCell id="s9MI37_qmTpbE7ZE2GGh-23" value="" style="endArrow=none;html=1;rounded=0;exitX=1;exitY=1;exitDx=0;exitDy=0;entryX=0;entryY=0;entryDx=0;entryDy=0;" edge="1" parent="1" source="s9MI37_qmTpbE7ZE2GGh-12" target="s9MI37_qmTpbE7ZE2GGh-16">
          <mxGeometry width="50" height="50" relative="1" as="geometry">
            <mxPoint x="610" y="290" as="sourcePoint" />
            <mxPoint x="660" y="240" as="targetPoint" />
          </mxGeometry>
        </mxCell>
        <mxCell id="s9MI37_qmTpbE7ZE2GGh-24" value="TROUSER" style="rounded=0;whiteSpace=wrap;html=1;" vertex="1" parent="1">
          <mxGeometry x="1040" y="520" width="120" height="40" as="geometry" />
        </mxCell>
        <mxCell id="s9MI37_qmTpbE7ZE2GGh-25" value="" style="endArrow=none;html=1;rounded=0;exitX=1;exitY=0.5;exitDx=0;exitDy=0;entryX=0;entryY=0;entryDx=0;entryDy=0;" edge="1" parent="1" source="s9MI37_qmTpbE7ZE2GGh-24" target="s9MI37_qmTpbE7ZE2GGh-17">
          <mxGeometry width="50" height="50" relative="1" as="geometry">
            <mxPoint x="260" y="380" as="sourcePoint" />
            <mxPoint x="310" y="330" as="targetPoint" />
          </mxGeometry>
        </mxCell>
        <mxCell id="s9MI37_qmTpbE7ZE2GGh-27" value="" style="endArrow=none;html=1;rounded=0;exitX=1;exitY=0.5;exitDx=0;exitDy=0;entryX=0;entryY=0.5;entryDx=0;entryDy=0;" edge="1" parent="1" source="s9MI37_qmTpbE7ZE2GGh-19" target="s9MI37_qmTpbE7ZE2GGh-17">
          <mxGeometry width="50" height="50" relative="1" as="geometry">
            <mxPoint x="260" y="380" as="sourcePoint" />
            <mxPoint x="310" y="330" as="targetPoint" />
          </mxGeometry>
        </mxCell>
        <mxCell id="s9MI37_qmTpbE7ZE2GGh-28" value="" style="endArrow=none;html=1;rounded=0;exitX=1;exitY=0.5;exitDx=0;exitDy=0;entryX=0;entryY=1;entryDx=0;entryDy=0;" edge="1" parent="1" source="s9MI37_qmTpbE7ZE2GGh-18" target="s9MI37_qmTpbE7ZE2GGh-17">
          <mxGeometry width="50" height="50" relative="1" as="geometry">
            <mxPoint x="260" y="380" as="sourcePoint" />
            <mxPoint x="310" y="330" as="targetPoint" />
          </mxGeometry>
        </mxCell>
        <mxCell id="s9MI37_qmTpbE7ZE2GGh-30" value="INVOICE" style="rounded=0;whiteSpace=wrap;html=1;" vertex="1" parent="1">
          <mxGeometry x="1840" y="540" width="120" height="40" as="geometry" />
        </mxCell>
        <mxCell id="s9MI37_qmTpbE7ZE2GGh-32" value="SHIPPING" style="rounded=0;whiteSpace=wrap;html=1;" vertex="1" parent="1">
          <mxGeometry x="320" y="360" width="120" height="40" as="geometry" />
        </mxCell>
        <mxCell id="s9MI37_qmTpbE7ZE2GGh-33" value="DISCOUNT" style="rounded=0;whiteSpace=wrap;html=1;" vertex="1" parent="1">
          <mxGeometry x="840" y="480" width="120" height="40" as="geometry" />
        </mxCell>
        <mxCell id="s9MI37_qmTpbE7ZE2GGh-34" value="CART" style="rounded=0;whiteSpace=wrap;html=1;" vertex="1" parent="1">
          <mxGeometry x="1360" y="200" width="120" height="40" as="geometry" />
        </mxCell>
        <mxCell id="s9MI37_qmTpbE7ZE2GGh-36" value="REVIEW" style="rounded=0;whiteSpace=wrap;html=1;" vertex="1" parent="1">
          <mxGeometry x="800" y="80" width="120" height="40" as="geometry" />
        </mxCell>
        <mxCell id="s9MI37_qmTpbE7ZE2GGh-37" value="LOYALTY_PROGRAM" style="rounded=0;whiteSpace=wrap;html=1;" vertex="1" parent="1">
          <mxGeometry x="1630" y="110" width="130" height="40" as="geometry" />
        </mxCell>
        <mxCell id="s9MI37_qmTpbE7ZE2GGh-38" value="" style="rhombus;whiteSpace=wrap;html=1;" vertex="1" parent="1">
          <mxGeometry x="710" y="360" width="120" height="80" as="geometry" />
        </mxCell>
        <mxCell id="s9MI37_qmTpbE7ZE2GGh-40" value="" style="endArrow=none;html=1;rounded=0;entryX=0;entryY=1;entryDx=0;entryDy=0;exitX=1;exitY=0;exitDx=0;exitDy=0;" edge="1" parent="1" source="s9MI37_qmTpbE7ZE2GGh-38" target="s9MI37_qmTpbE7ZE2GGh-12">
          <mxGeometry width="50" height="50" relative="1" as="geometry">
            <mxPoint x="870" y="560" as="sourcePoint" />
            <mxPoint x="920" y="510" as="targetPoint" />
          </mxGeometry>
        </mxCell>
        <mxCell id="s9MI37_qmTpbE7ZE2GGh-41" value="" style="endArrow=none;html=1;rounded=0;entryX=0;entryY=1;entryDx=0;entryDy=0;exitX=1;exitY=0;exitDx=0;exitDy=0;" edge="1" parent="1" source="s9MI37_qmTpbE7ZE2GGh-1" target="s9MI37_qmTpbE7ZE2GGh-38">
          <mxGeometry width="50" height="50" relative="1" as="geometry">
            <mxPoint x="870" y="560" as="sourcePoint" />
            <mxPoint x="920" y="510" as="targetPoint" />
          </mxGeometry>
        </mxCell>
        <mxCell id="s9MI37_qmTpbE7ZE2GGh-42" value="PAYMENT_METHOD" style="rounded=0;whiteSpace=wrap;html=1;" vertex="1" parent="1">
          <mxGeometry x="480" width="130" height="40" as="geometry" />
        </mxCell>
        <mxCell id="s9MI37_qmTpbE7ZE2GGh-43" value="CASH" style="rounded=0;whiteSpace=wrap;html=1;" vertex="1" parent="1">
          <mxGeometry x="400" y="-80" width="120" height="40" as="geometry" />
        </mxCell>
        <mxCell id="s9MI37_qmTpbE7ZE2GGh-44" value="BANKING" style="rounded=0;whiteSpace=wrap;html=1;" vertex="1" parent="1">
          <mxGeometry x="600" y="-80" width="120" height="40" as="geometry" />
        </mxCell>
        <mxCell id="s9MI37_qmTpbE7ZE2GGh-48" value="PAYMENT" style="rhombus;whiteSpace=wrap;html=1;" vertex="1" parent="1">
          <mxGeometry x="480" y="70" width="120" height="80" as="geometry" />
        </mxCell>
        <mxCell id="s9MI37_qmTpbE7ZE2GGh-49" value="" style="endArrow=none;html=1;rounded=0;exitX=0.454;exitY=0.97;exitDx=0;exitDy=0;exitPerimeter=0;entryX=0.5;entryY=0;entryDx=0;entryDy=0;" edge="1" parent="1" source="s9MI37_qmTpbE7ZE2GGh-42" target="s9MI37_qmTpbE7ZE2GGh-48">
          <mxGeometry width="50" height="50" relative="1" as="geometry">
            <mxPoint x="890" y="210" as="sourcePoint" />
            <mxPoint x="940" y="160" as="targetPoint" />
          </mxGeometry>
        </mxCell>
        <mxCell id="s9MI37_qmTpbE7ZE2GGh-50" value="" style="endArrow=none;html=1;rounded=0;exitX=1;exitY=0.5;exitDx=0;exitDy=0;entryX=0;entryY=0;entryDx=0;entryDy=0;" edge="1" parent="1" source="s9MI37_qmTpbE7ZE2GGh-48" target="s9MI37_qmTpbE7ZE2GGh-57">
          <mxGeometry width="50" height="50" relative="1" as="geometry">
            <mxPoint x="890" y="210" as="sourcePoint" />
            <mxPoint x="880" y="140" as="targetPoint" />
          </mxGeometry>
        </mxCell>
        <mxCell id="s9MI37_qmTpbE7ZE2GGh-51" value="" style="endArrow=none;html=1;rounded=0;exitX=0.5;exitY=0;exitDx=0;exitDy=0;entryX=0.5;entryY=1;entryDx=0;entryDy=0;" edge="1" parent="1" source="s9MI37_qmTpbE7ZE2GGh-3" target="s9MI37_qmTpbE7ZE2GGh-48">
          <mxGeometry width="50" height="50" relative="1" as="geometry">
            <mxPoint x="890" y="210" as="sourcePoint" />
            <mxPoint x="940" y="160" as="targetPoint" />
          </mxGeometry>
        </mxCell>
        <mxCell id="s9MI37_qmTpbE7ZE2GGh-53" value="RETURN_ORDER" style="shape=ext;margin=3;double=1;whiteSpace=wrap;html=1;align=center;" vertex="1" parent="1">
          <mxGeometry x="190" width="130" height="40" as="geometry" />
        </mxCell>
        <mxCell id="s9MI37_qmTpbE7ZE2GGh-54" value="" style="rhombus;whiteSpace=wrap;html=1;" vertex="1" parent="1">
          <mxGeometry x="280" y="60" width="120" height="80" as="geometry" />
        </mxCell>
        <mxCell id="s9MI37_qmTpbE7ZE2GGh-55" value="" style="endArrow=none;html=1;rounded=0;exitX=0.5;exitY=1;exitDx=0;exitDy=0;entryX=0.5;entryY=0;entryDx=0;entryDy=0;" edge="1" parent="1" source="s9MI37_qmTpbE7ZE2GGh-53" target="s9MI37_qmTpbE7ZE2GGh-54">
          <mxGeometry relative="1" as="geometry">
            <mxPoint x="710" y="180" as="sourcePoint" />
            <mxPoint x="870" y="180" as="targetPoint" />
          </mxGeometry>
        </mxCell>
        <mxCell id="s9MI37_qmTpbE7ZE2GGh-56" value="" style="endArrow=none;html=1;rounded=0;exitX=0.5;exitY=1;exitDx=0;exitDy=0;entryX=0;entryY=0;entryDx=0;entryDy=0;" edge="1" parent="1" source="s9MI37_qmTpbE7ZE2GGh-54" target="s9MI37_qmTpbE7ZE2GGh-3">
          <mxGeometry relative="1" as="geometry">
            <mxPoint x="710" y="180" as="sourcePoint" />
            <mxPoint x="870" y="180" as="targetPoint" />
          </mxGeometry>
        </mxCell>
        <mxCell id="s9MI37_qmTpbE7ZE2GGh-57" value="ORDER_DETAIL" style="shape=ext;margin=3;double=1;whiteSpace=wrap;html=1;align=center;" vertex="1" parent="1">
          <mxGeometry x="640" y="40" width="120" height="40" as="geometry" />
        </mxCell>
        <mxCell id="s9MI37_qmTpbE7ZE2GGh-59" value="" style="endArrow=none;html=1;rounded=0;entryX=0.5;entryY=0;entryDx=0;entryDy=0;exitX=0.5;exitY=1;exitDx=0;exitDy=0;" edge="1" parent="1" source="s9MI37_qmTpbE7ZE2GGh-43" target="s9MI37_qmTpbE7ZE2GGh-42">
          <mxGeometry relative="1" as="geometry">
            <mxPoint x="712" y="10" as="sourcePoint" />
            <mxPoint x="870" y="-90" as="targetPoint" />
          </mxGeometry>
        </mxCell>
        <mxCell id="s9MI37_qmTpbE7ZE2GGh-60" value="" style="endArrow=none;html=1;rounded=0;exitX=0.5;exitY=0;exitDx=0;exitDy=0;entryX=0.5;entryY=1;entryDx=0;entryDy=0;" edge="1" parent="1" source="s9MI37_qmTpbE7ZE2GGh-42" target="s9MI37_qmTpbE7ZE2GGh-44">
          <mxGeometry relative="1" as="geometry">
            <mxPoint x="810" y="40" as="sourcePoint" />
            <mxPoint x="870" y="10" as="targetPoint" />
          </mxGeometry>
        </mxCell>
        <mxCell id="s9MI37_qmTpbE7ZE2GGh-62" value="" style="rhombus;whiteSpace=wrap;html=1;" vertex="1" parent="1">
          <mxGeometry x="1870" y="340" width="120" height="80" as="geometry" />
        </mxCell>
        <mxCell id="s9MI37_qmTpbE7ZE2GGh-63" value="" style="rhombus;whiteSpace=wrap;html=1;" vertex="1" parent="1">
          <mxGeometry x="2000" y="520" width="120" height="80" as="geometry" />
        </mxCell>
        <mxCell id="s9MI37_qmTpbE7ZE2GGh-64" value="" style="endArrow=none;html=1;rounded=0;entryX=0.5;entryY=1;entryDx=0;entryDy=0;exitX=1;exitY=0.5;exitDx=0;exitDy=0;" edge="1" parent="1" source="s9MI37_qmTpbE7ZE2GGh-63" target="s9MI37_qmTpbE7ZE2GGh-4">
          <mxGeometry relative="1" as="geometry">
            <mxPoint x="1380" y="420" as="sourcePoint" />
            <mxPoint x="1540" y="420" as="targetPoint" />
          </mxGeometry>
        </mxCell>
        <mxCell id="s9MI37_qmTpbE7ZE2GGh-65" value="" style="endArrow=none;html=1;rounded=0;dashed=1;dashPattern=1 2;entryX=0;entryY=0.5;entryDx=0;entryDy=0;exitX=1;exitY=0.5;exitDx=0;exitDy=0;" edge="1" parent="1" source="s9MI37_qmTpbE7ZE2GGh-62" target="s9MI37_qmTpbE7ZE2GGh-4">
          <mxGeometry relative="1" as="geometry">
            <mxPoint x="1380" y="420" as="sourcePoint" />
            <mxPoint x="1540" y="420" as="targetPoint" />
          </mxGeometry>
        </mxCell>
        <mxCell id="s9MI37_qmTpbE7ZE2GGh-66" value="1" style="resizable=0;html=1;whiteSpace=wrap;align=right;verticalAlign=bottom;" connectable="0" vertex="1" parent="s9MI37_qmTpbE7ZE2GGh-65">
          <mxGeometry x="1" relative="1" as="geometry" />
        </mxCell>
        <mxCell id="s9MI37_qmTpbE7ZE2GGh-67" value="" style="endArrow=none;html=1;rounded=0;dashed=1;dashPattern=1 2;entryX=0;entryY=0.5;entryDx=0;entryDy=0;exitX=1;exitY=0.5;exitDx=0;exitDy=0;" edge="1" parent="1" source="s9MI37_qmTpbE7ZE2GGh-31" target="s9MI37_qmTpbE7ZE2GGh-62">
          <mxGeometry relative="1" as="geometry">
            <mxPoint x="1380" y="420" as="sourcePoint" />
            <mxPoint x="1540" y="420" as="targetPoint" />
          </mxGeometry>
        </mxCell>
        <mxCell id="s9MI37_qmTpbE7ZE2GGh-68" value="1" style="resizable=0;html=1;whiteSpace=wrap;align=right;verticalAlign=bottom;" connectable="0" vertex="1" parent="s9MI37_qmTpbE7ZE2GGh-67">
          <mxGeometry x="1" relative="1" as="geometry" />
        </mxCell>
        <mxCell id="s9MI37_qmTpbE7ZE2GGh-69" value="" style="endArrow=none;html=1;rounded=0;entryX=0;entryY=0.5;entryDx=0;entryDy=0;exitX=1;exitY=0.5;exitDx=0;exitDy=0;" edge="1" parent="1" source="s9MI37_qmTpbE7ZE2GGh-30" target="s9MI37_qmTpbE7ZE2GGh-63">
          <mxGeometry relative="1" as="geometry">
            <mxPoint x="1380" y="420" as="sourcePoint" />
            <mxPoint x="1540" y="420" as="targetPoint" />
          </mxGeometry>
        </mxCell>
        <mxCell id="s9MI37_qmTpbE7ZE2GGh-70" value="" style="endArrow=none;html=1;rounded=0;entryX=0;entryY=0.5;entryDx=0;entryDy=0;exitX=1;exitY=0.5;exitDx=0;exitDy=0;" edge="1" parent="1" source="s9MI37_qmTpbE7ZE2GGh-62" target="s9MI37_qmTpbE7ZE2GGh-4">
          <mxGeometry relative="1" as="geometry">
            <mxPoint x="1380" y="420" as="sourcePoint" />
            <mxPoint x="1540" y="420" as="targetPoint" />
          </mxGeometry>
        </mxCell>
        <mxCell id="s9MI37_qmTpbE7ZE2GGh-71" value="" style="endArrow=none;html=1;rounded=0;entryX=0;entryY=0.5;entryDx=0;entryDy=0;" edge="1" parent="1" source="s9MI37_qmTpbE7ZE2GGh-31" target="s9MI37_qmTpbE7ZE2GGh-62">
          <mxGeometry relative="1" as="geometry">
            <mxPoint x="1480" y="380" as="sourcePoint" />
            <mxPoint x="1540" y="420" as="targetPoint" />
          </mxGeometry>
        </mxCell>
        <mxCell id="s9MI37_qmTpbE7ZE2GGh-72" value="" style="endArrow=none;html=1;rounded=0;dashed=1;dashPattern=1 2;entryX=0;entryY=0.5;entryDx=0;entryDy=0;exitX=1;exitY=0.5;exitDx=0;exitDy=0;" edge="1" parent="1" source="s9MI37_qmTpbE7ZE2GGh-61" target="s9MI37_qmTpbE7ZE2GGh-31">
          <mxGeometry relative="1" as="geometry">
            <mxPoint x="1280" y="420" as="sourcePoint" />
            <mxPoint x="1440" y="420" as="targetPoint" />
          </mxGeometry>
        </mxCell>
        <mxCell id="s9MI37_qmTpbE7ZE2GGh-73" value="1" style="resizable=0;html=1;whiteSpace=wrap;align=right;verticalAlign=bottom;" connectable="0" vertex="1" parent="s9MI37_qmTpbE7ZE2GGh-72">
          <mxGeometry x="1" relative="1" as="geometry" />
        </mxCell>
        <mxCell id="s9MI37_qmTpbE7ZE2GGh-74" value="" style="endArrow=none;html=1;rounded=0;exitX=1;exitY=0.5;exitDx=0;exitDy=0;entryX=0;entryY=0.5;entryDx=0;entryDy=0;" edge="1" parent="1" source="s9MI37_qmTpbE7ZE2GGh-16" target="s9MI37_qmTpbE7ZE2GGh-61">
          <mxGeometry relative="1" as="geometry">
            <mxPoint x="1280" y="420" as="sourcePoint" />
            <mxPoint x="1440" y="420" as="targetPoint" />
          </mxGeometry>
        </mxCell>
        <mxCell id="s9MI37_qmTpbE7ZE2GGh-75" value="" style="endArrow=none;html=1;rounded=0;exitX=1;exitY=0.5;exitDx=0;exitDy=0;entryX=0;entryY=0.5;entryDx=0;entryDy=0;" edge="1" parent="1" source="s9MI37_qmTpbE7ZE2GGh-61" target="s9MI37_qmTpbE7ZE2GGh-31">
          <mxGeometry relative="1" as="geometry">
            <mxPoint x="1280" y="420" as="sourcePoint" />
            <mxPoint x="1440" y="420" as="targetPoint" />
          </mxGeometry>
        </mxCell>
        <mxCell id="s9MI37_qmTpbE7ZE2GGh-76" value="" style="rhombus;whiteSpace=wrap;html=1;" vertex="1" parent="1">
          <mxGeometry x="420" y="270" width="120" height="80" as="geometry" />
        </mxCell>
        <mxCell id="s9MI37_qmTpbE7ZE2GGh-77" value="" style="endArrow=none;html=1;rounded=0;exitX=1;exitY=0;exitDx=0;exitDy=0;entryX=0;entryY=1;entryDx=0;entryDy=0;" edge="1" parent="1" source="s9MI37_qmTpbE7ZE2GGh-32" target="s9MI37_qmTpbE7ZE2GGh-76">
          <mxGeometry relative="1" as="geometry">
            <mxPoint x="480" y="330" as="sourcePoint" />
            <mxPoint x="640" y="330" as="targetPoint" />
          </mxGeometry>
        </mxCell>
        <mxCell id="s9MI37_qmTpbE7ZE2GGh-78" value="" style="endArrow=none;html=1;rounded=0;exitX=0;exitY=1;exitDx=0;exitDy=0;entryX=1;entryY=0;entryDx=0;entryDy=0;" edge="1" parent="1" source="s9MI37_qmTpbE7ZE2GGh-3" target="s9MI37_qmTpbE7ZE2GGh-76">
          <mxGeometry relative="1" as="geometry">
            <mxPoint x="480" y="330" as="sourcePoint" />
            <mxPoint x="640" y="330" as="targetPoint" />
          </mxGeometry>
        </mxCell>
        <mxCell id="s9MI37_qmTpbE7ZE2GGh-79" value="" style="endArrow=none;html=1;rounded=0;entryX=0.5;entryY=0;entryDx=0;entryDy=0;exitX=0.5;exitY=1;exitDx=0;exitDy=0;" edge="1" parent="1" source="s9MI37_qmTpbE7ZE2GGh-3" target="s9MI37_qmTpbE7ZE2GGh-80">
          <mxGeometry relative="1" as="geometry">
            <mxPoint x="480" y="330" as="sourcePoint" />
            <mxPoint x="640" y="330" as="targetPoint" />
          </mxGeometry>
        </mxCell>
        <mxCell id="s9MI37_qmTpbE7ZE2GGh-80" value="" style="rhombus;whiteSpace=wrap;html=1;" vertex="1" parent="1">
          <mxGeometry x="560" y="270" width="120" height="80" as="geometry" />
        </mxCell>
        <mxCell id="s9MI37_qmTpbE7ZE2GGh-82" value="" style="endArrow=none;html=1;rounded=0;entryX=0.5;entryY=0;entryDx=0;entryDy=0;exitX=0.5;exitY=1;exitDx=0;exitDy=0;" edge="1" parent="1" source="s9MI37_qmTpbE7ZE2GGh-80" target="s9MI37_qmTpbE7ZE2GGh-1">
          <mxGeometry relative="1" as="geometry">
            <mxPoint x="480" y="330" as="sourcePoint" />
            <mxPoint x="640" y="330" as="targetPoint" />
          </mxGeometry>
        </mxCell>
        <mxCell id="s9MI37_qmTpbE7ZE2GGh-83" value="" style="rhombus;whiteSpace=wrap;html=1;" vertex="1" parent="1">
          <mxGeometry x="680" y="440" width="120" height="80" as="geometry" />
        </mxCell>
        <mxCell id="s9MI37_qmTpbE7ZE2GGh-85" value="" style="endArrow=none;html=1;rounded=0;entryX=0;entryY=0;entryDx=0;entryDy=0;exitX=1;exitY=1;exitDx=0;exitDy=0;" edge="1" parent="1" source="s9MI37_qmTpbE7ZE2GGh-1" target="s9MI37_qmTpbE7ZE2GGh-83">
          <mxGeometry relative="1" as="geometry">
            <mxPoint x="480" y="430" as="sourcePoint" />
            <mxPoint x="640" y="430" as="targetPoint" />
          </mxGeometry>
        </mxCell>
        <mxCell id="s9MI37_qmTpbE7ZE2GGh-86" value="" style="endArrow=none;html=1;rounded=0;entryX=0;entryY=0.5;entryDx=0;entryDy=0;exitX=1;exitY=1;exitDx=0;exitDy=0;" edge="1" parent="1" source="s9MI37_qmTpbE7ZE2GGh-83" target="s9MI37_qmTpbE7ZE2GGh-33">
          <mxGeometry relative="1" as="geometry">
            <mxPoint x="480" y="430" as="sourcePoint" />
            <mxPoint x="640" y="430" as="targetPoint" />
          </mxGeometry>
        </mxCell>
        <mxCell id="s9MI37_qmTpbE7ZE2GGh-87" value="" style="endArrow=none;html=1;rounded=0;exitX=1;exitY=0.5;exitDx=0;exitDy=0;" edge="1" parent="1" source="s9MI37_qmTpbE7ZE2GGh-14">
          <mxGeometry relative="1" as="geometry">
            <mxPoint x="1180" y="230" as="sourcePoint" />
            <mxPoint x="1200" y="220" as="targetPoint" />
          </mxGeometry>
        </mxCell>
        <mxCell id="s9MI37_qmTpbE7ZE2GGh-88" value="" style="endArrow=none;html=1;rounded=0;entryX=0;entryY=0.5;entryDx=0;entryDy=0;exitX=1;exitY=0.5;exitDx=0;exitDy=0;" edge="1" parent="1" source="s9MI37_qmTpbE7ZE2GGh-10" target="s9MI37_qmTpbE7ZE2GGh-34">
          <mxGeometry relative="1" as="geometry">
            <mxPoint x="1180" y="230" as="sourcePoint" />
            <mxPoint x="1340" y="230" as="targetPoint" />
          </mxGeometry>
        </mxCell>
        <mxCell id="s9MI37_qmTpbE7ZE2GGh-89" value="" style="endArrow=none;html=1;rounded=0;exitX=0.5;exitY=0;exitDx=0;exitDy=0;entryX=0.5;entryY=1;entryDx=0;entryDy=0;" edge="1" parent="1" source="s9MI37_qmTpbE7ZE2GGh-14" target="s9MI37_qmTpbE7ZE2GGh-90">
          <mxGeometry relative="1" as="geometry">
            <mxPoint x="1180" y="330" as="sourcePoint" />
            <mxPoint x="1340" y="330" as="targetPoint" />
          </mxGeometry>
        </mxCell>
        <mxCell id="s9MI37_qmTpbE7ZE2GGh-90" value="" style="rhombus;whiteSpace=wrap;html=1;" vertex="1" parent="1">
          <mxGeometry x="1060" y="100" width="120" height="80" as="geometry" />
        </mxCell>
        <mxCell id="s9MI37_qmTpbE7ZE2GGh-91" value="" style="endArrow=none;html=1;rounded=0;exitX=1;exitY=0.5;exitDx=0;exitDy=0;entryX=0;entryY=0.5;entryDx=0;entryDy=0;" edge="1" parent="1" source="s9MI37_qmTpbE7ZE2GGh-90" target="s9MI37_qmTpbE7ZE2GGh-37">
          <mxGeometry relative="1" as="geometry">
            <mxPoint x="1180" y="330" as="sourcePoint" />
            <mxPoint x="1340" y="330" as="targetPoint" />
          </mxGeometry>
        </mxCell>
        <mxCell id="s9MI37_qmTpbE7ZE2GGh-93" value="" style="rhombus;whiteSpace=wrap;html=1;" vertex="1" parent="1">
          <mxGeometry x="710" y="120" width="120" height="80" as="geometry" />
        </mxCell>
        <mxCell id="s9MI37_qmTpbE7ZE2GGh-94" value="" style="rhombus;whiteSpace=wrap;html=1;" vertex="1" parent="1">
          <mxGeometry x="920" y="120" width="120" height="80" as="geometry" />
        </mxCell>
        <mxCell id="s9MI37_qmTpbE7ZE2GGh-95" value="" style="endArrow=none;html=1;rounded=0;exitX=1;exitY=0;exitDx=0;exitDy=0;entryX=0;entryY=1;entryDx=0;entryDy=0;" edge="1" parent="1" source="s9MI37_qmTpbE7ZE2GGh-3" target="s9MI37_qmTpbE7ZE2GGh-93">
          <mxGeometry relative="1" as="geometry">
            <mxPoint x="800" y="370" as="sourcePoint" />
            <mxPoint x="960" y="370" as="targetPoint" />
          </mxGeometry>
        </mxCell>
        <mxCell id="s9MI37_qmTpbE7ZE2GGh-96" value="" style="endArrow=none;html=1;rounded=0;exitX=0.5;exitY=1;exitDx=0;exitDy=0;entryX=1;entryY=0;entryDx=0;entryDy=0;" edge="1" parent="1" source="s9MI37_qmTpbE7ZE2GGh-36" target="s9MI37_qmTpbE7ZE2GGh-93">
          <mxGeometry relative="1" as="geometry">
            <mxPoint x="800" y="370" as="sourcePoint" />
            <mxPoint x="960" y="370" as="targetPoint" />
          </mxGeometry>
        </mxCell>
        <mxCell id="s9MI37_qmTpbE7ZE2GGh-97" value="" style="endArrow=none;html=1;rounded=0;exitX=0.5;exitY=1;exitDx=0;exitDy=0;entryX=0;entryY=0;entryDx=0;entryDy=0;" edge="1" parent="1" source="s9MI37_qmTpbE7ZE2GGh-36" target="s9MI37_qmTpbE7ZE2GGh-94">
          <mxGeometry relative="1" as="geometry">
            <mxPoint x="800" y="370" as="sourcePoint" />
            <mxPoint x="960" y="370" as="targetPoint" />
          </mxGeometry>
        </mxCell>
        <mxCell id="s9MI37_qmTpbE7ZE2GGh-98" value="" style="endArrow=none;html=1;rounded=0;exitX=1;exitY=1;exitDx=0;exitDy=0;entryX=0;entryY=0;entryDx=0;entryDy=0;" edge="1" parent="1" source="s9MI37_qmTpbE7ZE2GGh-94" target="s9MI37_qmTpbE7ZE2GGh-14">
          <mxGeometry relative="1" as="geometry">
            <mxPoint x="800" y="370" as="sourcePoint" />
            <mxPoint x="960" y="370" as="targetPoint" />
          </mxGeometry>
        </mxCell>
        <mxCell id="s9MI37_qmTpbE7ZE2GGh-99" value="" style="rhombus;whiteSpace=wrap;html=1;" vertex="1" parent="1">
          <mxGeometry x="720" y="210" width="120" height="80" as="geometry" />
        </mxCell>
        <mxCell id="s9MI37_qmTpbE7ZE2GGh-100" value="" style="endArrow=none;html=1;rounded=0;exitX=1;exitY=0.5;exitDx=0;exitDy=0;entryX=0;entryY=0.5;entryDx=0;entryDy=0;" edge="1" parent="1" source="s9MI37_qmTpbE7ZE2GGh-3" target="s9MI37_qmTpbE7ZE2GGh-99">
          <mxGeometry relative="1" as="geometry">
            <mxPoint x="980" y="370" as="sourcePoint" />
            <mxPoint x="1140" y="370" as="targetPoint" />
          </mxGeometry>
        </mxCell>
        <mxCell id="s9MI37_qmTpbE7ZE2GGh-101" value="" style="endArrow=none;html=1;rounded=0;exitX=1;exitY=1;exitDx=0;exitDy=0;entryX=0;entryY=0.5;entryDx=0;entryDy=0;" edge="1" parent="1" source="s9MI37_qmTpbE7ZE2GGh-99" target="s9MI37_qmTpbE7ZE2GGh-15">
          <mxGeometry relative="1" as="geometry">
            <mxPoint x="980" y="370" as="sourcePoint" />
            <mxPoint x="1140" y="370" as="targetPoint" />
          </mxGeometry>
        </mxCell>
        <mxCell id="s9MI37_qmTpbE7ZE2GGh-102" value="" style="endArrow=none;html=1;rounded=0;entryX=0;entryY=0.5;entryDx=0;entryDy=0;" edge="1" parent="1" source="s9MI37_qmTpbE7ZE2GGh-61" target="s9MI37_qmTpbE7ZE2GGh-31">
          <mxGeometry relative="1" as="geometry">
            <mxPoint x="1480" y="380" as="sourcePoint" />
            <mxPoint x="1870" y="380" as="targetPoint" />
          </mxGeometry>
        </mxCell>
        <mxCell id="s9MI37_qmTpbE7ZE2GGh-31" value="IMPORT_RECEIPT" style="rounded=0;whiteSpace=wrap;html=1;" vertex="1" parent="1">
          <mxGeometry x="1720" y="360" width="120" height="40" as="geometry" />
        </mxCell>
        <mxCell id="s9MI37_qmTpbE7ZE2GGh-103" value="" style="endArrow=none;html=1;rounded=0;entryX=0;entryY=0.5;entryDx=0;entryDy=0;" edge="1" parent="1" source="s9MI37_qmTpbE7ZE2GGh-16" target="s9MI37_qmTpbE7ZE2GGh-61">
          <mxGeometry relative="1" as="geometry">
            <mxPoint x="1480" y="380" as="sourcePoint" />
            <mxPoint x="1720" y="380" as="targetPoint" />
          </mxGeometry>
        </mxCell>
        <mxCell id="s9MI37_qmTpbE7ZE2GGh-61" value="" style="rhombus;whiteSpace=wrap;html=1;" vertex="1" parent="1">
          <mxGeometry x="1560" y="340" width="120" height="80" as="geometry" />
        </mxCell>
        <mxCell id="s9MI37_qmTpbE7ZE2GGh-104" value="" style="endArrow=none;html=1;rounded=0;entryX=0;entryY=0.5;entryDx=0;entryDy=0;" edge="1" parent="1" target="s9MI37_qmTpbE7ZE2GGh-16">
          <mxGeometry relative="1" as="geometry">
            <mxPoint x="1480" y="380" as="sourcePoint" />
            <mxPoint x="1560" y="380" as="targetPoint" />
          </mxGeometry>
        </mxCell>
        <mxCell id="s9MI37_qmTpbE7ZE2GGh-16" value="MANAGER" style="rounded=0;whiteSpace=wrap;html=1;" vertex="1" parent="1">
          <mxGeometry x="1400" y="360" width="120" height="40" as="geometry" />
        </mxCell>
        <mxCell id="s9MI37_qmTpbE7ZE2GGh-105" value="" style="rhombus;whiteSpace=wrap;html=1;" vertex="1" parent="1">
          <mxGeometry x="1520" y="210" width="120" height="80" as="geometry" />
        </mxCell>
        <mxCell id="s9MI37_qmTpbE7ZE2GGh-106" value="" style="endArrow=none;html=1;rounded=0;entryX=0.5;entryY=0;entryDx=0;entryDy=0;exitX=0;exitY=1;exitDx=0;exitDy=0;" edge="1" parent="1" source="s9MI37_qmTpbE7ZE2GGh-105" target="s9MI37_qmTpbE7ZE2GGh-16">
          <mxGeometry relative="1" as="geometry">
            <mxPoint x="1180" y="370" as="sourcePoint" />
            <mxPoint x="1340" y="370" as="targetPoint" />
          </mxGeometry>
        </mxCell>
        <mxCell id="s9MI37_qmTpbE7ZE2GGh-107" value="" style="endArrow=none;html=1;rounded=0;entryX=1;entryY=0;entryDx=0;entryDy=0;exitX=0.5;exitY=1;exitDx=0;exitDy=0;" edge="1" parent="1" source="s9MI37_qmTpbE7ZE2GGh-37" target="s9MI37_qmTpbE7ZE2GGh-105">
          <mxGeometry relative="1" as="geometry">
            <mxPoint x="1180" y="370" as="sourcePoint" />
            <mxPoint x="1340" y="370" as="targetPoint" />
          </mxGeometry>
        </mxCell>
        <mxCell id="s9MI37_qmTpbE7ZE2GGh-108" value="" style="rhombus;whiteSpace=wrap;html=1;" vertex="1" parent="1">
          <mxGeometry x="1360" y="470" width="120" height="80" as="geometry" />
        </mxCell>
        <mxCell id="s9MI37_qmTpbE7ZE2GGh-109" value="" style="endArrow=none;html=1;rounded=0;exitX=0.5;exitY=0;exitDx=0;exitDy=0;entryX=0;entryY=1;entryDx=0;entryDy=0;" edge="1" parent="1" source="s9MI37_qmTpbE7ZE2GGh-17" target="s9MI37_qmTpbE7ZE2GGh-108">
          <mxGeometry width="50" height="50" relative="1" as="geometry">
            <mxPoint x="1020" y="520" as="sourcePoint" />
            <mxPoint x="1420" y="440" as="targetPoint" />
          </mxGeometry>
        </mxCell>
        <mxCell id="s9MI37_qmTpbE7ZE2GGh-111" value="" style="endArrow=none;html=1;rounded=0;exitX=1;exitY=0;exitDx=0;exitDy=0;entryX=0.5;entryY=1;entryDx=0;entryDy=0;" edge="1" parent="1" source="s9MI37_qmTpbE7ZE2GGh-108" target="s9MI37_qmTpbE7ZE2GGh-16">
          <mxGeometry width="50" height="50" relative="1" as="geometry">
            <mxPoint x="1310" y="610" as="sourcePoint" />
            <mxPoint x="1400" y="540" as="targetPoint" />
          </mxGeometry>
        </mxCell>
      </root>
    </mxGraphModel>
  </diagram>
</mxfile>
